<svg width="250" height="250" viewBox="0 0 250 250" fill="none" xmlns="http://www.w3.org/2000/svg">
<circle cx="125" cy="125" r="125" fill="#032A3B"/>
<path d="M71.9792 52.3333H89.2708C95.1736 52.3333 99.4792 53.7222 102.188 56.5C104.896 59.2083 106.25 63.4097 106.25 69.1042V72.0208C106.25 75.7708 105.625 78.8264 104.375 81.1875C103.194 83.5486 101.354 85.25 98.8542 86.2917V86.5C104.549 88.4444 107.396 93.5139 107.396 101.708V107.958C107.396 113.583 105.903 117.889 102.917 120.875C100 123.792 95.6944 125.25 90 125.25H71.9792V52.3333ZM87.9167 82.0208C90.2083 82.0208 91.9097 81.4306 93.0208 80.25C94.2014 79.0694 94.7917 77.0903 94.7917 74.3125V70.25C94.7917 67.6111 94.3056 65.7014 93.3333 64.5208C92.4306 63.3403 90.9722 62.75 88.9583 62.75H83.4375V82.0208H87.9167ZM90 114.833C92.0139 114.833 93.5069 114.313 94.4792 113.271C95.4514 112.16 95.9375 110.285 95.9375 107.646V101.292C95.9375 97.9583 95.3472 95.6667 94.1667 94.4167C93.0556 93.0972 91.1806 92.4375 88.5417 92.4375H83.4375V114.833H90Z" fill="#E5CDA7"/>
<path d="M159.792 199.208C154.236 199.208 150.035 197.646 147.187 194.521C144.34 191.326 142.917 186.778 142.917 180.875V176.708H153.75V181.708C153.75 186.431 155.729 188.792 159.688 188.792C161.632 188.792 163.09 188.236 164.063 187.125C165.104 185.944 165.625 184.069 165.625 181.5C165.625 178.444 164.931 175.771 163.542 173.479C162.153 171.118 159.583 168.306 155.833 165.042C151.111 160.875 147.813 157.125 145.938 153.792C144.063 150.389 143.125 146.569 143.125 142.333C143.125 136.569 144.583 132.125 147.5 129C150.417 125.806 154.653 124.208 160.208 124.208C165.694 124.208 169.826 125.806 172.604 129C175.451 132.125 176.875 136.639 176.875 142.542V145.562H166.042V141.812C166.042 139.312 165.556 137.507 164.583 136.396C163.611 135.215 162.188 134.625 160.313 134.625C156.493 134.625 154.583 136.951 154.583 141.604C154.583 144.243 155.278 146.708 156.667 149C158.125 151.292 160.729 154.069 164.479 157.333C169.271 161.5 172.569 165.285 174.375 168.687C176.181 172.09 177.083 176.083 177.083 180.667C177.083 186.639 175.59 191.222 172.604 194.417C169.688 197.611 165.417 199.208 159.792 199.208Z" fill="#E5CDA7"/>
<line x1="98.2361" y1="168.264" x2="157.847" y2="78.8473" stroke="#E5CDA7" stroke-width="5.20833" stroke-linecap="round"/>
</svg>
