<svg width="36" height="36" viewBox="0 0 36 36" fill="none" xmlns="http://www.w3.org/2000/svg">
<rect x="0.5" y="0.5" width="35" height="35" rx="7.5" fill="#E5CDA7"/>
<path d="M26 13C25.4 13.3 24.8 13.4 24.1 13.5C24.8 13.1 25.3 12.5 25.5 11.7C24.9 12.1 24.2 12.3 23.4 12.5C22.8 11.9 21.9 11.5 21 11.5C18.9 11.5 17.3 13.5 17.8 15.5C15.1 15.4 12.7 14.1 11 12.1C10.1 13.6 10.6 15.5 12 16.5C11.5 16.5 11 16.3 10.5 16.1C10.5 17.6 11.6 19 13.1 19.4C12.6 19.5 12.1 19.6 11.6 19.5C12 20.8 13.2 21.8 14.7 21.8C13.5 22.7 11.7 23.2 10 23C11.5 23.9 13.2 24.5 15 24.5C21.1 24.5 24.5 19.4 24.3 14.7C25 14.3 25.6 13.7 26 13Z" fill="#032A3B"/>
<rect x="0.5" y="0.5" width="35" height="35" rx="7.5" stroke="black"/>
</svg>
