<svg width="36" height="36" viewBox="0 0 36 36" fill="none" xmlns="http://www.w3.org/2000/svg">
<rect x="0.5" y="0.5" width="35" height="35" rx="7.5" fill="#E5CDA7"/>
<path d="M13.6 26H10.2V15.3H13.6V26ZM11.9 13.8C10.8 13.8 10 13 10 11.9C10 10.8 10.9 10 11.9 10C13 10 13.8 10.8 13.8 11.9C13.8 13 13 13.8 11.9 13.8ZM26 26H22.6V20.2C22.6 18.5 21.9 18 20.9 18C19.9 18 18.9 18.8 18.9 20.3V26H15.5V15.3H18.7V16.8C19 16.1 20.2 15 21.9 15C23.8 15 25.8 16.1 25.8 19.4V26H26Z" fill="#032A3B"/>
<rect x="0.5" y="0.5" width="35" height="35" rx="7.5" stroke="black"/>
</svg>
