<svg width="261" height="261" viewBox="0 0 261 261" fill="none" xmlns="http://www.w3.org/2000/svg">
<circle cx="130.5" cy="130.5" r="130.5" fill="#E5CDA7"/>
<path d="M75.1463 54.5H93.1988C99.3613 54.5 103.856 55.95 106.684 58.85C109.511 61.6775 110.925 66.0637 110.925 72.0087V75.0537C110.925 78.9687 110.273 82.1587 108.968 84.6237C107.735 87.0887 105.814 88.865 103.204 89.9525V90.17C109.149 92.2 112.121 97.4925 112.121 106.047V112.572C112.121 118.445 110.563 122.94 107.445 126.057C104.4 129.102 99.905 130.625 93.96 130.625H75.1463V54.5ZM91.785 85.4937C94.1775 85.4937 95.9538 84.8775 97.1138 83.645C98.3463 82.4125 98.9625 80.3462 98.9625 77.4462V73.205C98.9625 70.45 98.455 68.4562 97.44 67.2237C96.4975 65.9912 94.975 65.375 92.8725 65.375H87.1088V85.4937H91.785ZM93.96 119.75C96.0625 119.75 97.6213 119.206 98.6362 118.119C99.6513 116.959 100.159 115.001 100.159 112.246V105.612C100.159 102.132 99.5425 99.74 98.31 98.435C97.15 97.0575 95.1925 96.3687 92.4375 96.3687H87.1088V119.75H93.96Z" fill="#032A3B"/>
<path d="M166.823 207.838C161.023 207.838 156.636 206.206 153.664 202.944C150.691 199.609 149.205 194.86 149.205 188.697V184.347H160.515V189.567C160.515 194.497 162.581 196.962 166.714 196.962C168.744 196.962 170.266 196.382 171.281 195.222C172.369 193.99 172.913 192.032 172.913 189.35C172.913 186.16 172.188 183.369 170.738 180.976C169.288 178.511 166.605 175.575 162.69 172.167C157.76 167.817 154.316 163.902 152.359 160.422C150.401 156.87 149.423 152.882 149.423 148.46C149.423 142.442 150.945 137.802 153.99 134.54C157.035 131.205 161.458 129.537 167.258 129.537C172.985 129.537 177.299 131.205 180.199 134.54C183.171 137.802 184.658 142.515 184.658 148.677V151.831H173.348V147.916C173.348 145.306 172.84 143.421 171.825 142.261C170.81 141.029 169.324 140.412 167.366 140.412C163.379 140.412 161.385 142.841 161.385 147.699C161.385 150.454 162.11 153.027 163.56 155.42C165.083 157.812 167.801 160.712 171.716 164.12C176.719 168.47 180.163 172.421 182.048 175.974C183.933 179.526 184.875 183.695 184.875 188.48C184.875 194.715 183.316 199.5 180.199 202.835C177.154 206.17 172.695 207.838 166.823 207.838Z" fill="#032A3B"/>
<line x1="102.68" y1="173.476" x2="167.881" y2="82.1946" stroke="#032A3B" stroke-width="5.4375" stroke-linecap="round"/>
</svg>
