<svg width="36" height="36" viewBox="0 0 36 36" fill="none" xmlns="http://www.w3.org/2000/svg">
<rect x="0.5" y="0.5" width="35" height="35" rx="7.5" fill="#E5CDA7"/>
<path d="M27.75 9.75H8.25C7.83516 9.75 7.5 10.0852 7.5 10.5V25.5C7.5 25.9148 7.83516 26.25 8.25 26.25H27.75C28.1648 26.25 28.5 25.9148 28.5 25.5V10.5C28.5 10.0852 28.1648 9.75 27.75 9.75ZM26.8125 12.3469V24.5625H9.1875V12.3469L8.54063 11.843L9.46172 10.6594L10.4648 11.4398H25.5375L26.5406 10.6594L27.4617 11.843L26.8125 12.3469ZM25.5375 11.4375L18 17.2969L10.4625 11.4375L9.45938 10.657L8.53828 11.8406L9.18516 12.3445L17.1914 18.5695C17.4217 18.7484 17.7049 18.8455 17.9965 18.8455C18.2881 18.8455 18.5713 18.7484 18.8016 18.5695L26.8125 12.3469L27.4594 11.843L26.5383 10.6594L25.5375 11.4375Z" fill="#032A3B"/>
<rect x="0.5" y="0.5" width="35" height="35" rx="7.5" stroke="black"/>
</svg>
