<svg width="36" height="36" viewBox="0 0 36 36" fill="none" xmlns="http://www.w3.org/2000/svg">
<rect x="0.5" y="0.5" width="35" height="35" rx="7.5" fill="#E5CDA7"/>
<path d="M18 11.2002C20.2 11.2002 20.5 11.2002 21.4 11.2002C22.2 11.2002 22.6 11.4002 22.9 11.5002C23.3 11.7002 23.6 11.8002 23.9 12.1002C24.2 12.4002 24.4 12.7002 24.5 13.1002C24.6 13.4002 24.7 13.8002 24.8 14.6002C24.8 15.5002 24.8 15.7002 24.8 18.0002C24.8 20.3002 24.8 20.5002 24.8 21.4002C24.8 22.2002 24.6 22.6002 24.5 22.9002C24.3 23.3002 24.2 23.6002 23.9 23.9002C23.6 24.2002 23.3 24.4002 22.9 24.5002C22.6 24.6002 22.2 24.7002 21.4 24.8002C20.5 24.8002 20.3 24.8002 18 24.8002C15.7 24.8002 15.5 24.8002 14.6 24.8002C13.8 24.8002 13.4 24.6002 13.1 24.5002C12.7 24.3002 12.4 24.2002 12.1 23.9002C11.8 23.6002 11.6 23.3002 11.5 22.9002C11.4 22.6002 11.3 22.2002 11.2 21.4002C11.2 20.5002 11.2 20.3002 11.2 18.0002C11.2 15.7002 11.2 15.5002 11.2 14.6002C11.2 13.8002 11.4 13.4002 11.5 13.1002C11.7 12.7002 11.8 12.4002 12.1 12.1002C12.4 11.8002 12.7 11.6002 13.1 11.5002C13.4 11.4002 13.8 11.3002 14.6 11.2002C15.5 11.2002 15.8 11.2002 18 11.2002ZM18 9.7002C15.7 9.7002 15.5 9.7002 14.6 9.7002C13.7 9.7002 13.1 9.9002 12.6 10.1002C12.1 10.3002 11.6 10.6002 11.1 11.1002C10.6 11.6002 10.4 12.0002 10.1 12.6002C9.9 13.1002 9.8 13.7002 9.7 14.6002C9.7 15.5002 9.7 15.8002 9.7 18.0002C9.7 20.3002 9.7 20.5002 9.7 21.4002C9.7 22.3002 9.9 22.9002 10.1 23.4002C10.3 23.9002 10.6 24.4002 11.1 24.9002C11.6 25.4002 12 25.6002 12.6 25.9002C13.1 26.1002 13.7 26.2002 14.6 26.3002C15.5 26.3002 15.8 26.3002 18 26.3002C20.2 26.3002 20.5 26.3002 21.4 26.3002C22.3 26.3002 22.9 26.1002 23.4 25.9002C23.9 25.7002 24.4 25.4002 24.9 24.9002C25.4 24.4002 25.6 24.0002 25.9 23.4002C26.1 22.9002 26.2 22.3002 26.3 21.4002C26.3 20.5002 26.3 20.2002 26.3 18.0002C26.3 15.8002 26.3 15.5002 26.3 14.6002C26.3 13.7002 26.1 13.1002 25.9 12.6002C25.7 12.1002 25.4 11.6002 24.9 11.1002C24.4 10.6002 24 10.4002 23.4 10.1002C22.9 9.9002 22.3 9.8002 21.4 9.7002C20.5 9.7002 20.3 9.7002 18 9.7002Z" fill="#032A3B"/>
<path d="M18 13.7002C15.6 13.7002 13.7 15.6002 13.7 18.0002C13.7 20.4002 15.6 22.3002 18 22.3002C20.4 22.3002 22.3 20.4002 22.3 18.0002C22.3 15.6002 20.4 13.7002 18 13.7002ZM18 20.8002C16.5 20.8002 15.2 19.6002 15.2 18.0002C15.2 16.5002 16.4 15.2002 18 15.2002C19.5 15.2002 20.8 16.4002 20.8 18.0002C20.8 19.5002 19.5 20.8002 18 20.8002Z" fill="#032A3B"/>
<path d="M22.4 14.6002C22.9523 14.6002 23.4 14.1525 23.4 13.6002C23.4 13.0479 22.9523 12.6002 22.4 12.6002C21.8477 12.6002 21.4 13.0479 21.4 13.6002C21.4 14.1525 21.8477 14.6002 22.4 14.6002Z" fill="#032A3B"/>
<rect x="0.5" y="0.5" width="35" height="35" rx="7.5" stroke="black"/>
</svg>
