<svg width="154" height="26" viewBox="0 0 154 26" fill="none" xmlns="http://www.w3.org/2000/svg">
<rect width="154" height="25" rx="10" fill="#E5CDA7"/>
<path d="M14.82 5.23809H18.14C19.2733 5.23809 20.1 5.50476 20.62 6.03809C21.14 6.55809 21.4 7.36476 21.4 8.45809V9.01809C21.4 9.73809 21.28 10.3248 21.04 10.7781C20.8133 11.2314 20.46 11.5581 19.98 11.7581V11.7981C21.0733 12.1714 21.62 13.1448 21.62 14.7181V15.9181C21.62 16.9981 21.3333 17.8248 20.76 18.3981C20.2 18.9581 19.3733 19.2381 18.28 19.2381H14.82V5.23809ZM17.88 10.9381C18.32 10.9381 18.6467 10.8248 18.86 10.5981C19.0867 10.3714 19.2 9.99143 19.2 9.45809V8.67809C19.2 8.17143 19.1067 7.80476 18.92 7.57809C18.7467 7.35143 18.4667 7.23809 18.08 7.23809H17.02V10.9381H17.88ZM18.28 17.2381C18.6667 17.2381 18.9533 17.1381 19.14 16.9381C19.3267 16.7248 19.42 16.3648 19.42 15.8581V14.6381C19.42 13.9981 19.3067 13.5581 19.08 13.3181C18.8667 13.0648 18.5067 12.9381 18 12.9381H17.02V17.2381H18.28ZM22.9059 5.23809H25.1059V19.2381H22.9059V5.23809ZM26.7536 5.23809H29.5136L31.6536 13.6181H31.6936V5.23809H33.6536V19.2381H31.3936L28.7536 9.01809H28.7136V19.2381H26.7536V5.23809ZM37.0088 7.23809H34.7088V5.23809H41.5088V7.23809H39.2088V19.2381H37.0088V7.23809ZM43.3559 5.23809H46.3359L48.6159 19.2381H46.4159L46.0159 16.4581V16.4981H43.5159L43.1159 19.2381H41.0759L43.3559 5.23809ZM45.7559 14.5981L44.7759 7.67809H44.7359L43.7759 14.5981H45.7559ZM49.6833 5.23809H52.4433L54.5833 13.6181H54.6233V5.23809H56.5833V19.2381H54.3233L51.6833 9.01809H51.6433V19.2381H49.6833V5.23809ZM61.3384 19.4381C60.2718 19.4381 59.4584 19.1381 58.8984 18.5381C58.3384 17.9248 58.0584 17.0514 58.0584 15.9181V8.55809C58.0584 7.42476 58.3384 6.55809 58.8984 5.95809C59.4584 5.34476 60.2718 5.03809 61.3384 5.03809C62.4051 5.03809 63.2184 5.34476 63.7784 5.95809C64.3384 6.55809 64.6184 7.42476 64.6184 8.55809V9.75809H62.5384V8.41809C62.5384 7.49809 62.1584 7.03809 61.3984 7.03809C60.6384 7.03809 60.2584 7.49809 60.2584 8.41809V16.0781C60.2584 16.9848 60.6384 17.4381 61.3984 17.4381C62.1584 17.4381 62.5384 16.9848 62.5384 16.0781V13.3381H61.4384V11.3381H64.6184V15.9181C64.6184 17.0514 64.3384 17.9248 63.7784 18.5381C63.2184 19.1381 62.4051 19.4381 61.3384 19.4381Z" fill="#032A3B"/>
<path d="M85.68 19.4381C84.6133 19.4381 83.8067 19.1381 83.26 18.5381C82.7133 17.9248 82.44 17.0514 82.44 15.9181V15.1181H84.52V16.0781C84.52 16.9848 84.9 17.4381 85.66 17.4381C86.0333 17.4381 86.3133 17.3314 86.5 17.1181C86.7 16.8914 86.8 16.5314 86.8 16.0381C86.8 15.4514 86.6667 14.9381 86.4 14.4981C86.1333 14.0448 85.64 13.5048 84.92 12.8781C84.0133 12.0781 83.38 11.3581 83.02 10.7181C82.66 10.0648 82.48 9.33143 82.48 8.51809C82.48 7.41143 82.76 6.55809 83.32 5.95809C83.88 5.34476 84.6933 5.03809 85.76 5.03809C86.8133 5.03809 87.6067 5.34476 88.14 5.95809C88.6867 6.55809 88.96 7.42476 88.96 8.55809V9.13809H86.88V8.41809C86.88 7.93809 86.7867 7.59143 86.6 7.37809C86.4133 7.15143 86.14 7.03809 85.78 7.03809C85.0467 7.03809 84.68 7.48476 84.68 8.37809C84.68 8.88476 84.8133 9.35809 85.08 9.79809C85.36 10.2381 85.86 10.7714 86.58 11.3981C87.5 12.1981 88.1333 12.9248 88.48 13.5781C88.8267 14.2314 89 14.9981 89 15.8781C89 17.0248 88.7133 17.9048 88.14 18.5181C87.58 19.1314 86.76 19.4381 85.68 19.4381ZM91.9028 5.23809H94.8828L97.1628 19.2381H94.9628L94.5628 16.4581V16.4981H92.0628L91.6628 19.2381H89.6228L91.9028 5.23809ZM94.3028 14.5981L93.3228 7.67809H93.2828L92.3228 14.5981H94.3028ZM98.2302 5.23809H101.37L102.77 15.2581H102.81L104.21 5.23809H107.35V19.2381H105.27V8.63809H105.23L103.63 19.2381H101.79L100.19 8.63809H100.15V19.2381H98.2302V5.23809ZM112.192 19.4381C111.125 19.4381 110.312 19.1381 109.752 18.5381C109.192 17.9248 108.912 17.0514 108.912 15.9181V5.23809H111.112V16.0781C111.112 16.5581 111.205 16.9048 111.392 17.1181C111.592 17.3314 111.872 17.4381 112.232 17.4381C112.592 17.4381 112.865 17.3314 113.052 17.1181C113.252 16.9048 113.352 16.5581 113.352 16.0781V5.23809H115.472V15.9181C115.472 17.0514 115.192 17.9248 114.632 18.5381C114.072 19.1381 113.259 19.4381 112.192 19.4381ZM117.039 5.23809H120.399C121.492 5.23809 122.312 5.53143 122.859 6.11809C123.405 6.70476 123.679 7.56476 123.679 8.69809V15.7781C123.679 16.9114 123.405 17.7714 122.859 18.3581C122.312 18.9448 121.492 19.2381 120.399 19.2381H117.039V5.23809ZM120.359 17.2381C120.719 17.2381 120.992 17.1314 121.179 16.9181C121.379 16.7048 121.479 16.3581 121.479 15.8781V8.59809C121.479 8.11809 121.379 7.77143 121.179 7.55809C120.992 7.34476 120.719 7.23809 120.359 7.23809H119.239V17.2381H120.359ZM125.164 5.23809H128.424C129.557 5.23809 130.384 5.50476 130.904 6.03809C131.424 6.55809 131.684 7.36476 131.684 8.45809V9.31809C131.684 10.7714 131.204 11.6914 130.244 12.0781V12.1181C130.777 12.2781 131.15 12.6048 131.364 13.0981C131.59 13.5914 131.704 14.2514 131.704 15.0781V17.5381C131.704 17.9381 131.717 18.2648 131.744 18.5181C131.77 18.7581 131.837 18.9981 131.944 19.2381H129.704C129.624 19.0114 129.57 18.7981 129.544 18.5981C129.517 18.3981 129.504 18.0381 129.504 17.5181V14.9581C129.504 14.3181 129.397 13.8714 129.184 13.6181C128.984 13.3648 128.63 13.2381 128.124 13.2381H127.364V19.2381H125.164V5.23809ZM128.164 11.2381C128.604 11.2381 128.93 11.1248 129.144 10.8981C129.37 10.6714 129.484 10.2914 129.484 9.75809V8.67809C129.484 8.17143 129.39 7.80476 129.204 7.57809C129.03 7.35143 128.75 7.23809 128.364 7.23809H127.364V11.2381H128.164ZM136.41 19.4381C135.33 19.4381 134.503 19.1314 133.93 18.5181C133.357 17.9048 133.07 17.0381 133.07 15.9181V8.55809C133.07 7.43809 133.357 6.57143 133.93 5.95809C134.503 5.34476 135.33 5.03809 136.41 5.03809C137.49 5.03809 138.317 5.34476 138.89 5.95809C139.463 6.57143 139.75 7.43809 139.75 8.55809V15.9181C139.75 17.0381 139.463 17.9048 138.89 18.5181C138.317 19.1314 137.49 19.4381 136.41 19.4381ZM136.41 17.4381C137.17 17.4381 137.55 16.9781 137.55 16.0581V8.41809C137.55 7.49809 137.17 7.03809 136.41 7.03809C135.65 7.03809 135.27 7.49809 135.27 8.41809V16.0581C135.27 16.9781 135.65 17.4381 136.41 17.4381Z" fill="#032A3B"/>
<line x1="73.5" y1="19.4984" x2="73.5" y2="5.5" stroke="#032A3B" stroke-linecap="round"/>
</svg>
